<!DOCTYPE svg PUBLIC "-//W3C//DTD SVG 1.1//EN" "http://www.w3.org/Graphics/SVG/1.1/DTD/svg11.dtd">
<!-- Uploaded to: SVG Repo, www.svgrepo.com, Transformed by: SVG Repo Mixer Tools -->
<svg width="256px" height="256px" viewBox="0 0 24 24" fill="none" xmlns="http://www.w3.org/2000/svg" stroke="#fff">
<g id="SVGRepo_bgCarrier" stroke-width="0"/>
<g id="SVGRepo_tracerCarrier" stroke-linecap="round" stroke-linejoin="round"/>
<g id="SVGRepo_iconCarrier"> <path d="M11 12.0001C11 13.1046 10.1046 14.0001 9 14.0001C7.89543 14.0001 7 13.1046 7 12.0001C7 10.8955 7.89543 10.0001 9 10.0001C10.1046 10.0001 11 10.8955 11 12.0001Z" stroke="#fff" stroke-width="2" stroke-linecap="round" stroke-linejoin="round"/> <path d="M17 12.0001C17 13.1046 16.1046 14.0001 15 14.0001C13.8954 14.0001 13 13.1046 13 12.0001C13 10.8955 13.8954 10.0001 15 10.0001C16.1046 10.0001 17 10.8955 17 12.0001Z" stroke="#fff" stroke-width="2" stroke-linecap="round" stroke-linejoin="round"/> <path d="M14 6.81006C14 7.91463 13.1046 8.81006 12 8.81006C10.8954 8.81006 10 7.91463 10 6.81006C10 5.70549 10.8954 4.81006 12 4.81006C13.1046 4.81006 14 5.70549 14 6.81006Z" stroke="#fff" stroke-width="2" stroke-linecap="round" stroke-linejoin="round"/> <path d="M8 17.1901C8 18.2946 7.10457 19.1901 6 19.1901C4.89543 19.1901 4 18.2946 4 17.1901C4 16.0855 4.89543 15.1901 6 15.1901C7.10457 15.1901 8 16.0855 8 17.1901Z" stroke="#fff" stroke-width="2" stroke-linecap="round" stroke-linejoin="round"/> <path d="M14 17.1901C14 18.2946 13.1046 19.1901 12 19.1901C10.8954 19.1901 10 18.2946 10 17.1901C10 16.0855 10.8954 15.1901 12 15.1901C13.1046 15.1901 14 16.0855 14 17.1901Z" stroke="#fff" stroke-width="2" stroke-linecap="round" stroke-linejoin="round"/> <path d="M20 17.1901C20 18.2946 19.1046 19.1901 18 19.1901C16.8954 19.1901 16 18.2946 16 17.1901C16 16.0855 16.8954 15.1901 18 15.1901C19.1046 15.1901 20 16.0855 20 17.1901Z" stroke="#fff" stroke-width="2" stroke-linecap="round" stroke-linejoin="round"/> </g>
</svg>