<svg xmlns="http://www.w3.org/2000/svg" xmlns:xlink="http://www.w3.org/1999/xlink" version="1.1" width="256" height="256" viewBox="0 0 256 256" xml:space="preserve">

<defs>
</defs>
<g style="stroke: none; stroke-width: 0; stroke-dasharray: none; stroke-linecap: butt; stroke-linejoin: miter; stroke-miterlimit: 10; fill: none; fill-rule: nonzero; opacity: 1;" transform="translate(1.4065934065934016 1.4065934065934016) scale(2.81 2.81)" >
	<path d="M 89.95 34.92 c -0.135 -0.411 -0.519 -0.688 -0.95 -0.688 H 56.508 L 45.948 2.814 C 45.811 2.408 45.43 2.133 45 2.133 s -0.811 0.274 -0.948 0.681 l -10.56 31.417 H 1 c -0.432 0 -0.815 0.277 -0.95 0.688 s 0.009 0.861 0.357 1.117 l 26.246 19.314 l -10 31.21 c -0.131 0.409 0.014 0.856 0.36 1.11 c 0.348 0.257 0.817 0.261 1.168 0.012 L 45 68.795 l 26.818 18.889 c 0.173 0.122 0.375 0.183 0.576 0.183 c 0.208 0 0.416 -0.064 0.592 -0.194 c 0.347 -0.254 0.491 -0.701 0.36 -1.11 l -10 -31.21 l 26.246 -19.314 C 89.94 35.781 90.085 35.331 89.95 34.92 z" style="stroke: none; stroke-width: 1; stroke-dasharray: none; stroke-linecap: butt; stroke-linejoin: miter; stroke-miterlimit: 10; fill: rgb(255,212,0); fill-rule: nonzero; opacity: 1;" transform=" matrix(1 0 0 1 0 0) " stroke-linecap="round" />
</g>
</svg>